<?xml version="1.0" encoding="utf-8"?><!DOCTYPE svg PUBLIC "-//W3C//DTD SVG 1.1//EN" "http://www.w3.org/Graphics/SVG/1.1/DTD/svg11.dtd"><svg version="1.1" id="Contours" xmlns="http://www.w3.org/2000/svg" xmlns:xlink="http://www.w3.org/1999/xlink" x="0px" y="0px" width="527.027893px" height="527.027893px" viewBox="0.000000 0.000000 527.027893 824.576416" enable-background="new 0 0 527.027893 527.027893" xml:space="preserve" stroke="black" fill="none" stroke-linecap='round' stroke-linejoin='round'><desc xmlns:shape="http://adobe.com/products/shape"><shape:version>10076</shape:version><shape:appName>Adobe Capture</shape:appName><shape:captureDetail>0.015001</shape:captureDetail><shape:platform>IOS</shape:platform><shape:platformVersion>17.3.1</shape:platformVersion></desc><path class="selected"  fill="#000000" opacity="1.000000" stroke="none" 
 	d="
M243.960342 117.014877 C245.425888 109.094009 245.402756 102.118134 240.329788 95.623795 C238.359909 93.101974 237.879227 89.336731 237.008011 86.061340 C236.268143 83.279785 239.220596 80.367081 242.349014 81.084366 C249.655106 82.759537 255.020401 86.797180 258.042160 94.034271 C260.951126 101.001236 259.669876 108.152847 259.906082 115.240067 C260.001053 118.088669 260.267075 120.533676 263.650497 120.993118 C267.067337 121.457077 270.016800 121.120010 270.993851 116.871719 C272.879105 108.674484 276.191360 100.579742 276.576126 92.333511 C276.891617 85.572464 274.638138 78.322815 272.038712 71.889709 C268.926834 64.188461 264.334915 57.068787 260.179947 49.814087 C258.627365 47.103180 256.482620 44.733826 254.664383 42.168655 C254.497940 41.933868 254.622208 41.144043 254.816971 41.053375 C259.364334 38.936142 264.125595 40.063110 267.980728 43.451645 C273.541397 48.339279 279.996109 52.360016 284.890457 57.809448 C289.048477 62.439026 290.585770 68.813156 290.176651 75.356766 C290.083939 76.839661 290.574600 78.394730 290.977249 79.867203 C294.051529 91.109451 294.288162 102.599792 293.924637 114.125229 C293.795853 118.208389 294.680191 120.032455 299.424149 121.381790 C307.942215 123.804581 315.978043 128.003250 324.103470 131.705612 C335.315750 136.814529 346.637650 137.100906 358.529190 134.180710 C365.024551 132.585648 371.921890 132.441940 378.661514 132.071213 C388.677322 131.520309 398.713699 131.339554 408.741837 131.017197 C419.435928 130.673447 430.131180 130.367538 440.824722 130.008957 C449.910660 129.704330 458.993973 129.131454 468.080399 129.086777 C474.773270 129.053909 481.479263 130.072861 488.161392 129.905289 C494.897171 129.736404 501.637833 127.981705 508.325272 128.240891 C513.483170 128.440811 518.675735 130.358475 523.642776 132.108780 C528.295975 133.748520 526.781448 138.107224 526.830276 141.641556 C526.856766 143.563736 527.052444 145.514114 526.797684 147.401230 C526.533524 149.358017 526.425369 151.862686 525.204483 153.081711 C513.500809 164.768082 501.976822 176.690506 489.551956 187.575790 C482.936111 193.371872 474.509171 197.054184 467.153946 202.063797 C456.066299 209.615524 445.270035 217.594193 434.214920 225.194901 C427.904556 229.533463 421.270828 233.398880 414.889359 237.637924 C411.065872 240.177780 407.574112 243.225021 403.707779 245.690720 C398.094131 249.270798 392.186783 252.390182 386.572281 255.969070 C381.133804 259.435715 375.931656 263.271103 370.576981 266.872025 C367.988419 268.612717 364.845108 269.754654 362.727066 271.923538 C357.736710 277.033585 353.498978 282.890884 348.407974 287.886612 C344.203812 292.012100 339.420609 295.644760 334.520096 298.939713 C327.802567 303.456375 320.741470 307.463791 313.803787 311.649857 C312.351151 312.526352 310.671036 314.077560 309.306412 313.877945 C300.219742 312.548843 291.826736 316.522385 283.027359 316.933151 C278.055618 317.165268 275.025284 319.024399 273.459244 323.880814 C272.620987 326.480515 270.509598 328.640640 269.363113 331.175705 C266.445084 337.628036 263.677963 344.151443 260.982376 350.700699 C258.872574 355.826614 257.095993 361.092026 254.912003 366.184189 C253.493149 369.492294 253.834427 371.864426 256.075851 374.975021 C258.230453 377.965012 259.229782 382.061142 259.870651 385.818954 C262.144852 399.153244 259.390060 412.452438 256.353378 425.083298 C254.635391 432.229172 254.407791 440.544052 249.145187 447.062790 C246.991135 449.730942 247.240005 454.206589 245.777328 457.592880 C242.722885 464.664658 239.229935 471.546005 235.966660 478.528732 C230.942673 489.278793 226.359543 500.261459 220.779953 510.713242 C218.259689 515.434189 213.785873 519.110458 210.209274 523.270126 C208.310989 525.477890 206.286270 527.596909 204.580765 529.946396 C200.597855 535.433334 195.657394 540.594345 193.233810 546.728500 C191.254929 551.737167 192.296799 557.961716 192.117081 563.650925 C191.993271 567.569748 192.073746 571.494980 192.053787 575.417343 C192.051315 575.903915 191.990067 576.390121 191.960709 576.876755 C191.293564 587.933029 190.262039 598.982224 190.045639 610.047287 C189.718735 626.763412 190.328598 643.501572 189.834030 660.209396 C189.490494 671.813644 187.790909 683.371689 187.029984 694.972214 C186.634415 701.002975 187.308304 707.105576 186.882248 713.132187 C186.167831 723.237289 184.689163 733.290024 184.035599 743.397385 C183.363388 753.793747 183.557663 764.246872 182.854721 774.640121 C182.473526 780.276352 180.886215 785.822433 180.119156 791.446762 C179.898788 793.062485 180.640915 794.809494 180.941727 796.496262 C182.002335 795.781479 183.297409 795.263107 184.086655 794.320969 C190.841446 786.258530 202.512863 785.493820 209.601730 793.396347 C213.076706 797.270309 216.649796 802.043015 217.669907 806.932297 C219.985977 818.032639 212.348434 821.939560 202.659134 824.157211 C194.165573 826.101242 187.878433 820.750717 180.529770 819.007614 C177.805588 818.361435 174.735306 818.231369 172.452072 816.836105 C163.561935 811.403915 162.310776 807.001938 165.324265 796.091721 C166.533920 791.712387 167.419632 787.427170 167.239365 782.582260 C166.824203 771.424911 166.314224 760.109055 169.838394 749.127426 C170.662704 746.558823 169.700607 743.468918 170.038712 740.676743 C170.333511 738.242661 171.495285 735.923141 171.910477 733.491013 C172.224258 731.653183 171.903519 729.715195 171.970810 727.825607 C172.280350 719.130173 172.505325 710.429306 172.993607 701.743454 C173.512527 692.512070 174.406662 683.301682 174.927444 674.070419 C175.414474 665.436874 175.746140 656.790207 175.925369 648.144821 C176.090042 640.201218 176.087143 632.248825 175.919815 624.305344 C175.788040 618.049118 174.752670 611.772141 175.080276 605.555038 C175.648148 594.780685 177.126602 584.057358 177.891464 573.289169 C178.284164 567.760300 178.232681 562.157333 177.761642 556.640793 C177.649155 555.323471 175.153946 553.380661 173.584061 553.198898 C170.798294 552.876450 167.504410 552.962631 165.124252 554.212753 C162.638748 555.518173 160.185654 558.069077 159.114426 560.653976 C156.285110 567.481308 154.205002 574.619675 151.844742 581.640305 C151.499283 582.667892 150.739944 583.915817 151.042191 584.744431 C153.273697 590.862595 149.266678 595.827133 148.111282 601.278488 C146.303391 609.808456 144.095718 618.256271 141.947403 626.710922 C137.657822 643.592270 133.442764 660.494858 128.908768 677.311020 C125.805954 688.819138 122.498947 700.289963 118.742264 711.597702 C116.321793 718.883469 112.529831 725.710922 110.064224 732.985031 C107.280197 741.198349 105.698532 749.823532 102.837784 758.005234 C100.355423 765.105026 96.596298 771.747849 93.813370 778.756149 C91.435654 784.744125 92.504257 785.761703 98.723038 786.091721 C103.972427 786.370285 109.279709 786.911972 114.389206 788.086227 C119.367630 789.230453 121.961319 795.274155 121.224930 800.345444 C119.641708 811.248764 107.348434 820.159225 98.218704 820.929184 C92.701218 821.394577 86.941147 821.842148 81.612991 820.738571 C77.738541 819.936081 74.035934 816.992599 70.897324 814.266220 C66.538406 810.480026 67.145218 803.276901 70.628433 798.607529 C72.767685 795.739792 74.266495 791.969406 74.773300 788.421555 C75.343704 784.428574 76.933975 781.464157 79.016098 778.082199 C82.446426 772.510239 84.744217 766.143539 86.871841 759.891464 C89.613693 751.834396 91.413071 743.454147 94.210648 735.419357 C95.871536 730.649155 99.421463 726.491806 100.808517 721.680283 C103.957108 710.758041 106.050400 699.535568 109.038773 688.561996 C111.349747 680.075790 114.552048 671.835861 117.017746 663.387131 C119.238907 655.776169 121.082474 648.050766 122.941147 640.339340 C126.011703 627.600143 127.776627 614.397446 132.254898 602.183273 C138.074265 586.311142 138.311020 569.319199 143.837326 553.505478 C144.142227 552.632919 143.250961 551.093369 142.537491 550.151352 C131.862869 536.057602 120.640488 522.349167 110.549515 507.852158 C102.015244 495.591599 94.945877 482.321579 86.911118 469.700119 C79.161911 457.527267 71.021378 445.603134 63.025070 433.588058 C57.631088 425.483200 52.054855 417.496201 46.802048 409.301437 C40.064957 398.791183 33.084976 388.390854 27.102127 377.454941 C20.520676 365.424911 14.955307 352.839157 8.941605 340.498276 C6.711487 335.921799 4.456787 331.357315 2.240997 326.773941 C2.042679 326.363724 1.820190 325.728378 1.995361 325.410599 C4.001907 321.770370 3.534576 318.776382 0.039490 316.267258 C-0.182846 316.107712 0.577850 314.243362 1.212997 313.431686 C1.400635 313.191879 2.852295 313.660934 3.513321 314.113754 C14.075302 321.348587 20.082932 332.417252 26.839462 342.701035 C34.001785 353.602463 39.640457 365.518906 46.979813 376.286484 C55.661636 389.023544 65.399216 401.045334 74.784378 413.296555 C78.883957 418.648117 83.413559 423.675766 87.395767 429.108627 C88.792496 431.014084 88.976334 433.765976 90.012802 435.992172 C90.787521 437.656174 91.849747 439.284958 93.129013 440.591537 C94.903305 442.403732 97.374222 443.612411 98.889481 445.584579 C103.218918 451.219345 107.184097 457.132553 111.355270 462.890793 C114.243790 466.878403 117.156265 470.854904 120.237106 474.692673 C121.029739 475.680038 122.498611 476.124496 123.656815 476.818405 C123.741409 475.367294 124.348068 473.683578 123.822495 472.504379 C121.186630 466.590683 118.474686 460.689316 115.383011 455.004623 C107.699356 440.876633 99.433334 427.050522 95.878738 411.066452 C95.154221 407.808334 93.188492 404.846237 92.145523 401.633835 C90.876358 397.724655 93.041458 393.190536 96.360062 392.115280 C101.115768 390.574387 103.954147 392.365952 106.019882 397.397812 C108.506912 403.456039 111.574539 409.116562 115.579910 414.506088 C120.527115 421.162888 123.737045 429.086105 128.015305 436.272995 C131.222702 441.660995 135.064072 446.667953 138.384079 451.993515 C142.415268 458.459946 145.961563 465.238876 150.186172 471.569992 C152.181839 474.560776 155.187759 476.916367 157.945267 479.319565 C158.378464 479.697067 160.449997 479.116135 160.872635 478.429611 C163.061295 474.874557 164.999191 471.161728 166.950699 467.464890 C169.475418 462.682358 171.860428 457.825119 174.429428 453.066940 C180.902695 441.077499 187.557266 429.184494 193.902267 417.128159 C196.261185 412.645859 198.480545 407.962936 199.846329 403.113205 C202.288834 394.440292 207.484787 387.612167 213.352951 381.220810 C218.606857 375.498459 224.297775 370.177414 229.795883 364.679306 C230.267258 364.207932 230.672775 363.428757 231.219955 363.311691 C238.714951 361.707993 239.497482 354.990005 241.989792 349.490463 C246.251785 340.085892 250.503525 330.666733 255.151535 321.451401 C257.360336 317.072159 253.942917 316.779373 251.737137 316.089401 C237.445541 311.619339 223.294235 307.093491 212.737350 295.440964 C209.754654 292.148788 205.725449 289.827957 202.353256 286.860428 C196.404343 281.625351 192.080093 275.474472 188.992416 267.911087 C185.794174 260.076828 179.700150 253.436630 176.401321 245.628311 C173.003433 237.585678 171.876450 228.722549 173.635178 219.837692 C173.757736 219.218643 173.918625 218.597427 173.950241 217.971603 C174.299667 211.053879 174.233078 204.084641 175.109360 197.235580 C175.627731 193.183945 177.230057 189.125931 179.057419 185.422318 C181.527908 180.415207 184.668716 175.737289 187.553787 170.937271 C188.273788 169.739365 189.116074 168.614883 189.902145 167.456680 C188.406113 166.642746 186.959793 165.263290 185.404190 165.126511 C181.543869 164.787033 177.616013 165.250595 173.747482 164.961166 C167.509201 164.494370 161.296768 163.681595 155.073441 163.014877 C148.850113 162.348221 142.627243 161.131027 136.403336 161.125443 C121.876205 161.112350 107.349045 161.704422 92.820877 162.000992 C88.432541 162.090591 84.038193 161.916489 79.651230 162.034775 C69.621750 162.305191 59.586044 162.519272 49.570908 163.078690 C43.994339 163.390152 38.443314 164.271530 32.900192 165.036728 C27.524826 165.778732 20.679855 156.472580 22.657059 150.847244 C25.007339 144.160416 27.724777 137.595932 29.876633 130.848862 C31.016068 127.276077 31.834946 123.433548 31.870163 119.704056 C32.060501 99.540802 32.001602 79.374603 31.904190 59.210022 C31.892960 56.884399 31.023178 54.573593 30.723190 52.233887 C30.586502 51.168030 30.666122 49.983795 30.992508 48.963593 C33.480728 41.185669 36.619705 38.606537 43.323380 39.080719 C44.956772 39.196289 47.017136 39.667938 48.059555 40.760101 C58.970901 52.192032 72.516068 59.869843 85.755264 68.105286 C102.910324 78.776596 119.671371 90.082245 136.563553 101.173386 C137.791214 101.979446 138.578842 103.457245 139.808395 104.258530 C140.760361 104.878891 142.083603 104.929520 143.241837 105.233414 C143.131699 103.977570 143.488449 102.311371 142.817734 101.548187 C141.245255 99.758926 139.018295 98.560669 137.342819 96.843552 C128.564285 87.846802 119.482681 79.097031 111.348343 69.544495 C108.105698 65.736496 106.348007 60.229309 105.295578 55.206253 C104.878067 53.213562 107.770004 49.910446 109.916672 48.113647 C116.264847 42.800034 123.454605 38.433258 129.473221 32.797043 C140.911240 22.085724 151.977432 11.054520 165.514023 2.836975 C172.114700 -1.170029 177.405533 -0.894180 182.967148 3.422440 C184.122849 4.319427 185.864365 5.010971 187.281113 4.922241 C192.070053 4.622375 193.380020 7.563034 193.956497 11.391403 C195.634079 22.531784 197.419540 33.657928 198.924850 44.821716 C200.420364 55.913300 201.370865 67.082520 203.042099 78.144928 C204.359024 86.862091 204.019638 95.694290 207.338852 104.331924 C210.006271 111.273270 209.823959 119.301651 210.973129 126.837448 C211.687637 131.523087 212.326584 136.236435 213.401566 140.843521 C213.881882 142.902084 214.478348 144.567337 217.696854 142.111862 C224.240860 137.119217 231.453568 132.926498 238.685654 128.939072 C243.565567 126.248489 244.348740 122.308762 243.960342 117.014877 M250.460342 145.014877 C247.407120 150.595627 246.666061 157.491501 241.001328 161.617966 C240.684372 161.848862 241.041885 162.905411 240.948044 163.557938 C239.680405 172.372910 238.995926 181.314804 234.331070 189.302872 C233.662064 190.448410 234.283493 192.384720 234.412460 193.946426 C234.502945 195.041794 235.218307 196.285355 234.890701 197.184341 C231.871384 205.469254 235.782700 213.309372 236.966110 221.117447 C238.237717 229.507736 242.121780 237.533463 245.179794 245.599228 C245.936050 247.593979 247.955215 249.091873 249.307083 250.883621 C250.907242 253.004501 253.266068 255.007523 253.794357 257.394058 C255.169144 263.604660 258.915451 268.090256 263.454819 271.848679 C268.750931 276.233688 273.736099 280.936630 280.598648 283.457901 C287.059402 285.831497 292.641373 290.509659 298.994156 293.298782 C302.630630 294.895370 307.402176 296.102707 311.017838 295.117844 C320.068680 292.652695 327.018204 286.752670 331.970291 278.586227 C333.774857 275.610245 336.469376 273.163925 338.197830 270.154312 C340.414139 266.295212 342.323196 262.201981 343.793045 258.009232 C344.199356 256.850388 342.868668 253.892746 341.832413 253.611404 C335.164139 251.800919 331.407669 246.447433 326.515518 242.346359 C320.573135 237.364853 317.366898 230.969376 315.095169 224.098831 C312.756119 217.024765 312.459183 209.173203 309.512650 202.429123 C306.088455 194.591904 307.800125 187.497726 309.429092 180.029831 C310.997086 172.841507 312.535233 165.643936 313.867020 158.409988 C314.051895 157.405869 313.226456 155.934586 312.430618 155.094742 C311.128250 153.720444 309.562271 152.529709 307.939041 151.537003 C300.400040 146.926254 294.001358 140.161423 284.880020 138.525223 C279.826736 137.618759 274.324783 138.400162 269.580887 136.786697 C263.562088 134.739639 259.573685 137.678665 255.238388 140.340805 C253.582443 141.357681 252.373184 143.102066 250.460342 145.014877 M374.960342 203.514877 C374.960342 206.681870 375.771988 210.138138 374.770523 212.948227 C373.259537 217.188217 374.323990 220.566299 375.863541 224.311996 C376.567337 226.024246 376.034805 228.203506 376.414322 230.100693 C376.878067 232.418594 377.654984 234.682571 378.450394 236.915024 C378.557388 237.215134 379.763870 237.507553 380.121719 237.276871 C386.052505 233.453629 391.918533 229.530167 397.820999 225.662582 C402.535049 222.573715 407.159317 219.323105 412.035049 216.511276 C420.892532 211.403183 430.254837 207.094101 438.761429 201.475052 C447.783096 195.515854 456.131180 188.517868 464.630569 181.792862 C472.200760 175.803085 479.565201 169.553757 487.041153 163.444412 C490.517471 160.603561 493.947830 157.691147 497.583206 155.066269 C499.632156 153.586929 500.158707 152.653854 497.328629 151.936172 C495.918900 151.578629 494.396255 151.562241 492.925491 151.569077 C488.689774 151.588882 484.404434 152.146561 480.229630 151.679214 C471.880386 150.744522 463.625626 148.897903 455.267288 148.133835 C448.764969 147.539383 442.161575 148.144638 435.609207 147.976974 C429.519363 147.821182 423.435440 147.385239 417.352982 147.007462 C402.634171 146.093369 388.107742 147.998459 373.604935 150.058365 C368.480972 150.786179 363.419388 151.973068 358.346512 153.032547 C355.828262 153.558517 355.126297 154.942551 356.654373 157.225693 C358.132828 159.434586 359.872452 161.552597 360.898392 163.965225 C364.573380 172.607101 367.816483 181.435013 371.587540 190.032608 C373.434952 194.244644 375.870682 198.153549 374.960342 203.514877 M50.960342 110.514877 C50.627029 112.873245 50.323105 115.236191 49.955032 117.589127 C48.635239 126.026169 47.139511 134.440964 46.100723 142.912003 C45.910965 144.459274 47.108688 147.054977 48.420303 147.756729 C54.223740 150.861679 65.498825 144.935654 66.994644 138.414047 C67.439194 136.475662 68.374008 134.655014 68.940506 132.737961 C69.687881 130.208664 70.692490 127.667068 70.884598 125.078690 C71.433304 117.686661 71.579575 110.265732 71.978348 102.861252 C72.213181 98.500397 73.508224 93.997208 72.788406 89.823288 C70.929977 79.047409 62.502579 73.740631 53.566238 69.320084 C52.842117 68.961868 50.186874 70.409454 50.125626 71.156952 C49.782364 75.346283 49.854965 79.581543 49.982468 83.795151 C50.241928 92.370407 50.627029 100.941864 50.960342 110.514877 M151.460342 145.014877 C155.087662 146.308853 158.688950 147.685410 162.359329 148.842850 C163.364426 149.159805 164.576675 148.819839 165.693893 148.781357 C165.282944 147.859421 165.112839 146.647171 164.416367 146.069351 C162.230606 144.256119 159.840500 142.690323 157.540970 141.012955 C153.702499 138.213058 149.838181 135.446976 146.047775 132.583237 C140.484848 128.380295 136.830856 121.873093 129.437607 119.755997 C126.889786 119.026382 124.973343 116.143906 122.724136 114.298904 C121.500015 113.294754 120.289108 112.182358 118.884964 111.509598 C116.189590 110.218216 114.920212 111.347214 114.949905 114.255844 C114.991318 118.309158 115.515762 122.460373 114.827682 126.393723 C113.842941 132.022964 111.883774 137.476730 110.487442 143.042252 C110.112167 144.538162 110.176956 146.175339 110.309006 147.724716 C110.323776 147.898422 112.314072 148.325943 113.029617 147.951157 C118.921432 144.864975 124.922745 145.034866 131.416550 145.786850 C137.651077 146.508835 144.103622 145.348221 151.460342 145.014877 M131.460342 62.014877 C129.633774 63.188309 127.807175 64.361740 125.980606 65.535156 C127.494003 66.695068 128.934586 67.969238 130.536423 68.990463 C133.623642 70.958694 136.590714 73.285583 140.460190 70.071732 C143.337784 67.681656 146.591507 65.722504 149.775833 63.728073 C157.682510 58.775894 165.670242 53.952774 173.554977 48.966339 C174.570663 48.323990 175.942795 46.928833 175.836380 46.039551 C175.067398 39.613754 174.296219 33.147842 172.790787 26.870911 C172.209305 24.446320 170.284927 22.889648 166.859238 25.381287 C158.176437 31.696609 152.836044 40.814041 145.877762 48.559952 C141.659195 53.256058 136.626999 57.221298 131.460342 62.014877 M86.960342 105.514877 C86.683151 116.242935 86.475754 126.845840 83.159653 137.363205 C79.858658 147.832565 80.568893 148.056259 91.845779 148.015366 C92.844070 148.011765 94.028549 148.362778 94.804520 147.947464 C96.855270 146.849838 100.523453 146.841141 98.178116 142.488998 C97.204330 140.681961 97.305252 137.675064 98.074844 135.654617 C101.808670 125.851303 99.077011 115.729782 100.050186 105.830826 C100.619583 100.038773 97.476608 97.402832 93.110825 94.943497 C90.191269 93.298859 88.773117 94.843094 88.064468 96.977417 C87.276505 99.350479 87.293686 101.990860 86.960342 105.514877 M192.460312 132.014877 C190.960312 123.500137 189.479599 114.981979 187.950851 106.472397 C187.342056 103.083710 186.485489 99.734467 185.996323 96.330673 C185.389450 92.107666 183.338943 92.112411 180.378342 94.095413 C175.437668 97.404678 170.468033 100.671494 165.561874 104.031082 C163.229172 105.628464 163.343369 107.244705 165.579025 109.047806 C168.336990 111.272110 171.283951 113.431473 173.467789 116.163589 C178.297134 122.205429 182.574600 128.686783 187.358505 134.767502 C188.683029 136.451096 190.996048 137.356979 192.855545 138.619675 C192.890457 136.584732 192.925400 134.549820 192.460312 132.014877 M153.460342 99.014877 C154.626999 98.338470 156.866928 97.487762 156.789871 97.013367 C156.194717 93.349152 158.665329 91.490860 160.885666 89.678238 C164.553879 86.683563 168.402145 83.892563 172.307053 81.208481 C178.923660 76.660522 181.495987 73.740677 180.857162 66.941727 C180.728195 65.568939 179.542709 63.815033 178.344528 63.180176 C177.440323 62.701111 175.504166 63.392059 174.432632 64.141632 C169.896652 67.314697 165.580215 70.801010 161.053116 73.987518 C156.581894 77.134689 151.913162 80.001068 147.437668 83.142487 C146.757462 83.619919 146.086929 85.190475 146.375656 85.795746 C148.430099 90.102463 150.735123 94.289642 153.460342 99.014877 M198.960342 509.514877 C194.673843 508.231613 193.784927 511.971298 192.013382 514.317429 C191.798080 514.602585 192.352890 515.944382 192.475327 515.933640 C193.376907 515.854904 194.537704 515.833115 195.093460 515.273483 C196.526566 513.830429 197.689499 512.119064 198.960342 509.514877 M171.460342 537.014877 C172.626999 536.711533 173.793686 536.408188 174.960342 536.104843 C174.735092 535.408188 174.509842 534.711533 174.284592 534.014877 C173.176498 534.848190 172.068405 535.681503 171.460342 537.014877 M203.460373 506.014877 C203.756668 505.311203 204.052963 504.607529 204.349228 503.903793 C203.528244 504.132187 202.437485 504.116135 201.953690 504.650070 C201.330948 505.337265 201.194870 506.465500 200.849228 507.403793 C201.552933 507.107468 202.256638 506.811203 203.460373 506.014877 M190.460342 523.014877 C189.663742 522.478134 188.867172 521.941391 188.070572 521.404648 C187.897598 522.305161 187.724625 523.205673 187.551682 524.106186 C188.354568 523.909103 189.157455 523.711960 190.460342 523.014877 M237.960342 150.514877 C238.672684 151.014877 239.384995 151.514877 240.097336 152.014908 C240.385025 151.567978 240.672714 151.121048 240.960342 150.674149 C240.126999 150.454391 239.293686 150.234634 237.960342 150.514877 M209.960342 165.514877 C209.931198 164.819077 210.058853 164.054398 209.797775 163.460556 C209.689560 163.214371 208.749985 163.333664 208.188492 163.286728 C208.612442 164.196121 209.036392 165.105484 209.960342 165.514877 z"/><path class="selected"  fill="#000000" opacity="1.000000" stroke="none" 
 	d="
M234.710342 335.764877 C232.119431 332.673935 229.756119 329.348221 227.465622 325.973068 C227.175613 325.545700 227.191666 324.851456 227.246292 324.298660 C227.257370 324.186386 228.139847 323.982986 228.521378 324.112961 C231.141037 325.005112 235.304550 332.446518 234.710342 335.764877 z"/></svg>